<svg width="64" height="64" viewBox="0 0 64 64" fill="none" xmlns="http://www.w3.org/2000/svg">
<rect width="64" height="64" fill="#0088FF" style="fill:#0088FF;fill:color(display-p3 0.0000 0.5333 1.0000);fill-opacity:1;"/>
<path d="M9.33334 36C10.0333 36.5833 10.7333 37.1667 12.25 37.1667C15.1667 37.1667 15.1667 34.8333 18.0833 34.8333C21.1167 34.8333 20.8833 37.1667 23.9167 37.1667C26.8333 37.1667 26.8333 34.8333 29.75 34.8333C31.2667 34.8333 31.9667 35.4167 32.6667 36" stroke="white" style="stroke:white;stroke-opacity:1;" stroke-width="2.33333" stroke-linecap="round" stroke-linejoin="round"/>
<path d="M9.33334 43C10.0333 43.5833 10.7333 44.1667 12.25 44.1667C15.1667 44.1667 15.1667 41.8333 18.0833 41.8333C21.1167 41.8333 20.8833 44.1667 23.9167 44.1667C26.8333 44.1667 26.8333 41.8333 29.75 41.8333C31.2667 41.8333 31.9667 42.4167 32.6667 43" stroke="white" style="stroke:white;stroke-opacity:1;" stroke-width="2.33333" stroke-linecap="round" stroke-linejoin="round"/>
<path d="M9.33334 50C10.0333 50.5833 10.7333 51.1667 12.25 51.1667C15.1667 51.1667 15.1667 48.8333 18.0833 48.8333C21.1167 48.8333 20.8833 51.1667 23.9167 51.1667C26.8333 51.1667 26.8333 48.8333 29.75 48.8333C31.2667 48.8333 31.9667 49.4167 32.6667 50" stroke="white" style="stroke:white;stroke-opacity:1;" stroke-width="2.33333" stroke-linecap="round" stroke-linejoin="round"/>
</svg>
